<?xml version="1.0" encoding="utf-8"?><!DOCTYPE svg PUBLIC "-//W3C//DTD SVG 1.1//EN" "http://www.w3.org/Graphics/SVG/1.1/DTD/svg11.dtd"><svg version="1.1" xmlns="http://www.w3.org/2000/svg" xmlns:xlink="http://www.w3.org/1999/xlink" width="24" height="28" viewBox="0 0 24 28" data-code="61877" data-tags="behance-square"><g fill="#444" transform="scale(0.02734375 0.02734375)"><path d="M713.143 73.143c90.857 0 164.571 73.714 164.571 164.571v548.571c0 90.857-73.714 164.571-164.571 164.571h-548.571c-90.857 0-164.571-73.714-164.571-164.571v-548.571c0-90.857 73.714-164.571 164.571-164.571h548.571zM285.143 282.857h-212v449.714h218.286c81.714 0 158.286-38.857 158.286-130.286 0-56.571-26.857-98.286-81.714-114.286 40-19.429 61.143-48.571 61.143-93.714 0-89.714-66.857-111.429-144-111.429zM272.571 464.571h-100.571v-105.143h93.143c35.429 0 68 9.714 68 51.429 0 38.286-25.143 53.714-60.571 53.714zM277.714 656h-105.714v-124h108c43.429 0 70.857 18.857 70.857 64.571s-32.571 59.429-73.143 59.429zM649.143 674.286c-52.571 0-80-30.857-80-82.857h234.857c0.571-5.714 0.571-11.429 0.571-17.143 0-96-56.571-176.571-158.857-176.571-98.857 0-166.857 74.857-166.857 172.571 0 101.714 64 170.857 166.857 170.857 78.286 0 128.571-34.857 152.571-109.143h-78.857c-8.571 27.429-43.429 42.286-70.286 42.286zM643.429 465.143c44.571 0 66.857 26.857 70.857 69.714h-145.143c2.857-42.857 31.429-69.714 74.286-69.714zM550.857 313.143h182.286v44h-182.286v-44z" /></g></svg>