<?xml version="1.0" encoding="utf-8"?><!DOCTYPE svg PUBLIC "-//W3C//DTD SVG 1.1//EN" "http://www.w3.org/Graphics/SVG/1.1/DTD/svg11.dtd"><svg version="1.1" xmlns="http://www.w3.org/2000/svg" xmlns:xlink="http://www.w3.org/1999/xlink" width="24" height="24" viewBox="0 0 24 24" data-tags="facebook"><g fill="#444" transform="scale(0.0234375 0.0234375)"><path d="M938 512q0-88-33-165t-92-136-136-92-165-33-165 33-136 92-92 136-33 165q0 78 25 147t72 125 109 94 134 52v-290h-84v-128h84v-106q0-42 21-76t54-54 75-20h106v128h-84q-18 0-31 13t-13 29v86h128v128h-128v296q82-8 152-44t122-93 81-130 29-157z" /></g></svg>