<?xml version="1.0" encoding="utf-8"?><!DOCTYPE svg PUBLIC "-//W3C//DTD SVG 1.1//EN" "http://www.w3.org/Graphics/SVG/1.1/DTD/svg11.dtd"><svg version="1.1" xmlns="http://www.w3.org/2000/svg" xmlns:xlink="http://www.w3.org/1999/xlink" width="24" height="28" viewBox="0 0 24 28" data-code="61651" data-tags="pinterest-square"><g fill="#444" transform="scale(0.02734375 0.02734375)"><path d="M713.143 73.143c90.857 0 164.571 73.714 164.571 164.571v548.571c0 90.857-73.714 164.571-164.571 164.571h-414.286c18.857-26.857 49.714-73.143 61.714-120 0 0 5.143-19.429 30.286-119.429 15.429 29.143 59.429 54.286 106.286 54.286 139.429 0 234.286-127.429 234.286-297.714 0-128.571-109.143-248.571-274.857-248.571-206.286 0-310.286 148-310.286 271.429 0 74.286 28.571 140.571 89.143 165.714 9.714 4 18.857 0 21.714-10.857 1.714-7.429 6.286-26.857 8.571-34.857 2.857-10.857 1.714-14.857-6.286-24-17.143-21.143-28.571-47.429-28.571-85.714 0-109.714 82.286-207.429 213.714-207.429 116.571 0 180.571 70.857 180.571 166.286 0 125.143-55.429 230.857-137.714 230.857-45.143 0-79.429-37.714-68.571-84 13.143-54.857 38.286-114.286 38.286-153.714 0-35.429-18.857-65.143-58.286-65.143-46.286 0-83.429 48-83.429 112 0 0 0 41.143 13.714 69.143-47.429 201.143-56 236.571-56 236.571-12.571 52.571-7.429 113.714-4 145.143h-104.571c-90.857 0-164.571-73.714-164.571-164.571v-548.571c0-90.857 73.714-164.571 164.571-164.571h548.571z" /></g></svg>